<?xml version="1.0" standalone="no"?>
<!DOCTYPE svg PUBLIC "-//W3C//DTD SVG 20010904//EN"
 "http://www.w3.org/TR/2001/REC-SVG-20010904/DTD/svg10.dtd">
<svg version="1.0" xmlns="http://www.w3.org/2000/svg"
 width="64.000000pt" height="64.000000pt" viewBox="0 0 64.000000 64.000000"
 preserveAspectRatio="xMidYMid meet">

<g transform="translate(0.000000,64.000000) scale(0.100000,-0.100000)"
fill="#000000" stroke="none">
<path d="M409 378 c0 -2 -1 -33 -2 -71 -2 -56 1 -67 15 -67 12 0 15 6 10 22
-3 14 -2 19 6 14 7 -4 12 -14 12 -22 0 -8 9 -14 22 -14 l21 0 -23 25 c-23 24
-23 25 -5 45 22 24 9 27 -17 3 -17 -15 -18 -14 -18 25 0 23 -4 42 -10 42 -5 0
-10 -1 -11 -2z"/>
<path d="M91 310 c-13 -32 -29 -61 -35 -64 -6 -2 -1 -5 10 -5 15 -1 21 5 20
17 -1 13 7 17 29 17 22 0 30 -4 29 -17 -1 -12 5 -18 20 -18 22 0 22 1 -8 65
-17 36 -33 65 -36 65 -3 0 -16 -27 -29 -60z m39 -7 c0 -7 -7 -13 -15 -13 -16
0 -19 9 -9 35 5 13 8 14 15 3 5 -7 9 -19 9 -25z"/>
<path d="M205 264 c0 -45 4 -64 13 -64 6 0 12 9 12 20 0 13 7 20 20 20 24 0
44 35 36 65 -5 20 -12 24 -44 23 l-37 0 0 -64z m63 12 c-2 -11 -11 -22 -20
-24 -14 -3 -18 3 -18 26 0 16 3 32 7 35 11 12 34 -15 31 -37z"/>
<path d="M310 309 c-17 -31 2 -69 35 -69 31 0 55 42 38 68 -16 27 -60 27 -73
1z m56 -13 c7 -28 -1 -46 -21 -46 -14 0 -29 45 -20 60 11 19 35 10 41 -14z"/>
<path d="M531 296 c-9 -10 -9 -20 -3 -33 7 -11 7 -25 1 -35 -14 -24 0 -48 27
-48 30 0 42 25 25 52 -9 15 -9 23 0 34 6 7 9 21 5 29 -7 19 -40 19 -55 1z m44
-16 c0 -22 -29 -18 -33 3 -3 14 1 18 15 15 10 -2 18 -10 18 -18z m5 -76 c0 -8
-9 -14 -20 -14 -19 0 -28 28 -13 43 9 9 33 -12 33 -29z"/>
</g>
</svg>
