<?xml version="1.0" encoding="UTF-8"?>
<svg xmlns="http://www.w3.org/2000/svg" xmlns:xlink="http://www.w3.org/1999/xlink" width="26pt" height="26pt" viewBox="0 0 26 26" version="1.1">
<g id="surface1">
<path style=" stroke:none;fill-rule:nonzero;fill:rgb(0%,0%,0%);fill-opacity:1;" d="M 22.222656 3.839844 C 22.074219 3.691406 21.832031 3.6875 21.683594 3.839844 C 21.535156 3.988281 21.53125 4.230469 21.679688 4.378906 C 23.933594 6.644531 25.191406 9.640625 25.234375 12.828125 C 23.652344 12.933594 22.398438 14.253906 22.398438 15.863281 C 22.398438 16.972656 22.988281 17.96875 23.933594 18.503906 C 23.355469 19.652344 22.589844 20.714844 21.652344 21.652344 C 19.953125 23.351562 17.839844 24.488281 15.539062 24.972656 C 15.128906 23.945312 14.128906 23.257812 13 23.257812 C 11.871094 23.257812 10.871094 23.945312 10.460938 24.972656 C 8.160156 24.488281 6.046875 23.351562 4.347656 21.652344 C 2.039062 19.339844 0.765625 16.269531 0.765625 13 C 0.765625 10.964844 1.257812 9.003906 2.1875 7.257812 C 2.867188 7.550781 3.605469 7.707031 4.351562 7.707031 C 4.992188 7.707031 5.617188 7.597656 6.214844 7.378906 C 6.414062 7.304688 6.515625 7.085938 6.445312 6.886719 C 6.371094 6.6875 6.152344 6.585938 5.953125 6.660156 C 5.441406 6.847656 4.902344 6.941406 4.351562 6.941406 C 3.730469 6.941406 3.132812 6.824219 2.574219 6.589844 C 3.070312 5.785156 3.664062 5.035156 4.347656 4.347656 C 5.664062 3.03125 7.226562 2.054688 8.933594 1.453125 C 8.984375 1.726562 9.007812 2.003906 9.007812 2.28125 C 9.007812 3.695312 8.378906 5.015625 7.277344 5.90625 C 7.113281 6.039062 7.085938 6.28125 7.21875 6.445312 C 7.296875 6.539062 7.40625 6.585938 7.519531 6.585938 C 7.601562 6.585938 7.6875 6.558594 7.757812 6.5 C 9.039062 5.464844 9.773438 3.929688 9.773438 2.28125 C 9.773438 1.925781 9.738281 1.570312 9.667969 1.222656 C 10.738281 0.921875 11.859375 0.765625 13 0.765625 C 15.742188 0.765625 18.335938 1.652344 20.5 3.332031 C 20.664062 3.460938 20.90625 3.429688 21.035156 3.265625 C 21.164062 3.097656 21.132812 2.855469 20.96875 2.726562 C 18.667969 0.941406 15.914062 0 13 0 C 9.527344 0 6.261719 1.351562 3.808594 3.808594 C 1.351562 6.261719 0 9.527344 0 13 C 0 16.472656 1.351562 19.738281 3.808594 22.191406 C 6.261719 24.648438 9.527344 26 13 26 C 16.472656 26 19.738281 24.648438 22.191406 22.191406 C 24.648438 19.738281 26 16.472656 26 13 C 26 9.542969 24.660156 6.292969 22.222656 3.839844 Z M 11.234375 25.109375 C 11.5625 24.453125 12.242188 24.023438 13 24.023438 C 13.757812 24.023438 14.4375 24.453125 14.765625 25.109375 C 14.183594 25.191406 13.597656 25.234375 13 25.234375 C 12.402344 25.234375 11.816406 25.191406 11.234375 25.109375 Z M 23.160156 15.863281 C 23.160156 14.679688 24.066406 13.707031 25.222656 13.597656 C 25.152344 15.066406 24.820312 16.488281 24.257812 17.808594 C 23.582031 17.402344 23.160156 16.671875 23.160156 15.863281 Z M 23.160156 15.863281 "/>
<path style=" stroke:none;fill-rule:nonzero;fill:rgb(0%,0%,0%);fill-opacity:1;" d="M 16.496094 12.226562 C 16.492188 12.226562 16.484375 12.226562 16.480469 12.226562 C 16.269531 12.226562 16.101562 12.394531 16.097656 12.605469 C 16.097656 12.816406 16.265625 12.988281 16.472656 12.992188 C 16.480469 12.992188 16.484375 12.992188 16.492188 12.992188 C 18.316406 12.992188 19.800781 11.507812 19.800781 9.679688 C 19.800781 7.855469 18.316406 6.371094 16.492188 6.371094 C 14.667969 6.371094 13.183594 7.855469 13.183594 9.679688 C 13.183594 10.816406 13.753906 11.859375 14.710938 12.46875 C 14.886719 12.582031 15.125 12.53125 15.238281 12.355469 C 15.351562 12.175781 15.300781 11.941406 15.121094 11.828125 C 14.386719 11.355469 13.945312 10.554688 13.945312 9.679688 C 13.945312 8.277344 15.089844 7.136719 16.492188 7.136719 C 17.894531 7.136719 19.039062 8.277344 19.039062 9.679688 C 19.039062 11.082031 17.898438 12.222656 16.496094 12.226562 Z M 16.496094 12.226562 "/>
<path style=" stroke:none;fill-rule:nonzero;fill:rgb(0%,0%,0%);fill-opacity:1;" d="M 7.945312 17.550781 C 9.085938 17.550781 10.011719 16.621094 10.011719 15.480469 C 10.011719 14.34375 9.085938 13.414062 7.945312 13.414062 C 6.804688 13.414062 5.875 14.34375 5.875 15.480469 C 5.875 16.621094 6.804688 17.550781 7.945312 17.550781 Z M 7.945312 14.179688 C 8.664062 14.179688 9.246094 14.761719 9.246094 15.480469 C 9.246094 16.199219 8.664062 16.785156 7.945312 16.785156 C 7.226562 16.785156 6.640625 16.199219 6.640625 15.480469 C 6.640625 14.761719 7.226562 14.179688 7.945312 14.179688 Z M 7.945312 14.179688 "/>
<path style=" stroke:none;fill-rule:nonzero;fill:rgb(0%,0%,0%);fill-opacity:1;" d="M 4.816406 9.761719 C 4.039062 9.761719 3.40625 10.398438 3.40625 11.175781 C 3.40625 11.953125 4.039062 12.585938 4.816406 12.585938 C 5.59375 12.585938 6.226562 11.953125 6.226562 11.175781 C 6.226562 10.398438 5.59375 9.761719 4.816406 9.761719 Z M 4.816406 11.820312 C 4.460938 11.820312 4.167969 11.53125 4.167969 11.175781 C 4.167969 10.816406 4.460938 10.527344 4.816406 10.527344 C 5.171875 10.527344 5.460938 10.816406 5.460938 11.175781 C 5.460938 11.53125 5.171875 11.820312 4.816406 11.820312 Z M 4.816406 11.820312 "/>
<path style=" stroke:none;fill-rule:nonzero;fill:rgb(0%,0%,0%);fill-opacity:1;" d="M 16.046875 21.472656 C 17.105469 21.472656 17.964844 20.609375 17.964844 19.550781 C 17.964844 18.492188 17.105469 17.628906 16.046875 17.628906 C 14.984375 17.628906 14.125 18.492188 14.125 19.550781 C 14.125 20.609375 14.984375 21.472656 16.046875 21.472656 Z M 16.046875 18.394531 C 16.683594 18.394531 17.203125 18.914062 17.203125 19.550781 C 17.203125 20.1875 16.683594 20.707031 16.046875 20.707031 C 15.40625 20.707031 14.886719 20.1875 14.886719 19.550781 C 14.886719 18.914062 15.40625 18.394531 16.046875 18.394531 Z M 16.046875 18.394531 "/>
<path style=" stroke:none;fill-rule:nonzero;fill:rgb(0%,0%,0%);fill-opacity:1;" d="M 20.304688 15.503906 C 20.304688 14.695312 19.644531 14.035156 18.835938 14.035156 C 18.023438 14.035156 17.363281 14.695312 17.363281 15.503906 C 17.363281 16.316406 18.023438 16.976562 18.835938 16.976562 C 19.644531 16.976562 20.304688 16.316406 20.304688 15.503906 Z M 18.128906 15.503906 C 18.128906 15.117188 18.445312 14.800781 18.835938 14.800781 C 19.222656 14.800781 19.542969 15.117188 19.542969 15.503906 C 19.542969 15.894531 19.222656 16.210938 18.835938 16.210938 C 18.445312 16.210938 18.128906 15.894531 18.128906 15.503906 Z M 18.128906 15.503906 "/>
</g>
</svg>
